HIERARCHY
ROOT ui
{
	 OFFSET 0 0 0
	 CHANNELS 3 XPosition YPosition Z Position
	 EndSite
	 {
	 OFFSET 0 -1 0
	 }
}
ROOT li
{
	 OFFSET 0 0 0
	 CHANNELS 3 XPosition YPosition Z Position
	 EndSite
	 {
	 OFFSET 0 -1 0
	 }
}
ROOT ul
{
	 OFFSET 0 0 0
	 CHANNELS 3 XPosition YPosition Z Position
	 EndSite
	 {
	 OFFSET 0 -1 0
	 }
}
ROOT ll
{
	 OFFSET 0 0 0
	 CHANNELS 3 XPosition YPosition Z Position
	 EndSite
	 {
	 OFFSET 0 -1 0
	 }
}
ROOT tt
{
	 OFFSET 0 0 0
	 CHANNELS 3 XPosition YPosition Z Position
	 EndSite
	 {
	 OFFSET 0 -1 0
	 }
}
ROOT tb
{
	 OFFSET 0 0 0
	 CHANNELS 3 XPosition YPosition Z Position
	 EndSite
	 {
	 OFFSET 0 -1 0
	 }
}
ROOT td
{
	 OFFSET 0 0 0
	 CHANNELS 3 XPosition YPosition Z Position
	 EndSite
	 {
	 OFFSET 0 -1 0
	 }
}
ROOT v
{
	 OFFSET 0 0 0
	 CHANNELS 3 XPosition YPosition Z Position
	 EndSite
	 {
	 OFFSET 0 -1 0
	 }
}
ROOT bn
{
	 OFFSET 0 0 0
	 CHANNELS 3 XPosition YPosition Z Position
	 EndSite
	 {
	 OFFSET 0 -1 0
	 }
}
MOTION
Frames: 27
Frame Time: 0.002
-0.00380632209777832	9.42126989364624E-4	0		0.41659280395507814	-2.38771630859375	0		-1.101912841796875	-0.03830000305175781	0		-0.7789505615234374	-2.6308974609375	0		1.4869542236328126	-0.7655029296875	0		2.97540576171875	0.2095098876953125	0		4.5263330078125	0.3279698791503906	0		5.64972265625	0.056592029571533205	0		-0.17410377502441407	5.9030107421875	0		
0.02029974937438965	5.638290047645569E-4	0		0.45142379760742185	-2.39933642578125	0		-1.102801513671875	-0.038121105194091794	0		-0.8158463134765624	-2.628943603515625	0		1.4461077880859374	-0.7624953002929687	0		3.000666259765625	0.21606556701660157	0		4.517169921875	0.31524435424804687	0		5.64883544921875	0.05667409515380859	0		-0.17490718078613282	5.90317626953125	0		
-0.008697113037109376	-0.0016609050035476685	0		0.4146970520019531	-2.3873974609375	0		-1.1078045654296875	-0.04084951019287109	0		-0.7839393920898438	-2.634477783203125	0		1.4799766845703124	-0.7711051635742188	0		2.964630859375	0.2119492950439453	0		4.52755859375	0.33010421752929686	0		5.6478974609375	0.05675928497314453	0		-0.17575904846191406	5.9033466796875	0		
-0.006612825870513916	0.0014438090324401856	0		0.4592374267578125	-2.40822607421875	0		-1.100656982421875	-0.03483781814575195	0		-0.8049750366210937	-2.63486181640625	0		1.436908447265625	-0.7740447387695313	0		2.95954638671875	0.20716409301757813	0		4.5214111328125	0.3223184814453125	0		5.64691845703125	0.05684678268432617	0		-0.1634169921875	5.9142353515625	0		
0.006240681171417236	-0.004688333988189697	0		0.4374117126464844	-2.397609130859375	0		-1.0975845947265626	-0.030739555358886717	0		-0.768034912109375	-2.6355048828125	0		1.4579442138671874	-0.7713733520507813	0		2.99244140625	0.20255476379394532	0		4.52837890625	0.3212502136230469	0		5.66007666015625	0.06462999725341798	0		-0.148175048828125	5.92205859375	0		
0.01633120536804199	0.0012390090227127075	0		0.4514028625488281	-2.39477392578125	0		-1.1027081298828125	-0.03446875762939453	0		-0.8168802490234375	-2.624286376953125	0		1.4548099365234375	-0.7751815795898438	0		2.96087060546875	0.22434907531738282	0		4.52352099609375	0.32943988037109373	0		5.64904248046875	0.06493610382080078	0		-0.17855722045898437	5.90286279296875	0		
-0.009716142654418945	0.0019452660083770753	0		0.44623159790039063	-2.39852880859375	0		-1.1118902587890624	-0.040115516662597654	0		-0.7512017211914063	-2.635565673828125	0		1.4475955810546874	-0.78190576171875	0		2.962298095703125	0.2004132080078125	0		4.5351865234375	0.3162632751464844	0		5.66281298828125	0.05669978332519531	0		-0.1795098419189453	5.9040283203125	0		
-0.008953069686889649	-0.005939300060272217	0		0.44409512329101564	-2.40035546875	0		-1.112953369140625	-0.039944385528564455	0		-0.8154135131835938	-2.640028076171875	0		1.4465230712890624	-0.781767333984375	0		2.96434619140625	0.20546580505371093	0		4.51313330078125	0.31681869506835936	0		5.657578125	0.048873077392578124	0		-0.18049684143066405	5.9041875	0		
0.010064387321472168	-0.002226327896118164	0		0.41811578369140623	-2.394669189453125	0		-1.1058900146484374	-0.03395737838745117	0		-0.7883212890625	-2.63148046875	0		1.4313433837890626	-0.7863303833007812	0		2.991146728515625	0.19897085571289064	0		4.52206982421875	0.31669500732421874	0		5.65651416015625	0.048952980041503905	0		-0.167297119140625	5.91303173828125	0		
-0.012902488708496094	0.002391184091567993	0		0.4211150817871094	-2.390622314453125	0		-1.1028634033203124	-0.029892871856689453	0		-0.811470947265625	-2.63385205078125	0		1.43055810546875	-0.7732102661132813	0		2.9525341796875	0.2198983612060547	0		4.5192978515625	0.3298229370117188	0		5.65962841796875	0.056938377380371094	0		-0.1825022430419922	5.90348046875	0		
0.01593621063232422	-0.003130902051925659	0		0.4439291076660156	-2.3960185546875	0		-1.1079952392578125	-0.03366290283203125	0		-0.79048486328125	-2.631193115234375	0		1.4295042724609375	-0.7730960083007813	0		2.973072265625	0.20052145385742187	0		4.51997265625	0.316863037109375	0		5.658583984375	0.057006511688232425	0		-0.17022492980957032	5.91532666015625	0		
-0.018035783767700195	-2.9303398728370666E-4	0		0.4149095458984375	-2.394293701171875	0		-1.1090189208984376	-0.03353197479248047	0		-0.8264616088867187	-2.6273037109375	0		1.44023046875	-0.7842499389648437	0		2.9744208984375	0.21756283569335938	0		4.51308447265625	0.3230654296875	0		5.6517802734375	0.06719625854492188	0		-0.18444586181640624	5.90373388671875	0		
0.005943430900573731	-0.0017285879850387573	0		0.46470687866210936	-2.403298583984375	0		-1.11407666015625	-0.03632440948486328	0		-0.7966400146484375	-2.63486083984375	0		1.4192564697265626	-0.78271923828125	0		2.971059814453125	0.200690673828125	0		4.51796240234375	0.31700140380859376	0		5.64661474609375	0.05933965301513672	0		-0.18536004638671874	5.90484423828125	0		
-0.015092652320861816	-0.005193121910095215	0		0.395791259765625	-2.399721923828125	0		-1.1109661865234375	-0.033303787231445316	0		-0.8196776733398438	-2.637274658203125	0		1.4262283935546876	-0.785807373046875	0		2.949265625	0.20821844482421875	0		4.51183837890625	0.30916983032226564	0		5.65561572265625	0.05716934967041016	0		-0.18628193664550782	5.90394482421875	0		
0.016126554489135744	1.9617199897766112E-4	0		0.453874755859375	-2.399923828125	0		-1.0960269775390625	-0.04055312728881836	0		-0.81549609375	-2.632289306640625	0		1.43453369140625	-0.7759295043945312	0		2.9871142578125	0.19643406677246095	0		4.5150888671875	0.3161314697265625	0		5.6588857421875	0.06512109375	0		-0.1709654083251953	5.91168408203125	0		
-0.015578866958618164	0.006951056003570557	0		0.4411461181640625	-2.393587158203125	0		-1.108628173828125	-0.029205379486083986	0		-0.7953217163085937	-2.63066162109375	0		1.447506103515625	-0.784164306640625	0		2.955737548828125	0.2181622314453125	0		4.5094013671875	0.32328369140625	0		5.65804248046875	0.06515695953369141	0		-0.17274101257324218	5.912787109375	0		
0.057346439361572264	-0.007588613033294678	0		0.4362692565917969	-2.397429443359375	0		-1.1175526123046875	-0.03594867706298828	0		-0.8351264038085937	-2.63073193359375	0		1.4216239013671874	-0.7885552978515625	0		2.95259521484375	0.20126119995117187	0		4.514498046875	0.31719427490234375	0		5.653095703125	0.057278076171875	0		-0.18866485595703125	5.90418994140625	0		
-0.020134145736694337	0.0031561439037322996	0		0.4096296997070312	-2.39379931640625	0		-1.118248291015625	-0.03587533569335938	0		-0.7788309936523438	-2.6309052734375	0		1.4408748779296876	-0.7909349975585938	0		2.951901123046875	0.20130763244628908	0		4.5138046875	0.3172303771972656	0		5.64244677734375	0.0595245246887207	0		-0.18932122802734375	5.90425732421875	0		
0.05112532043457031	-0.0033545529842376708	0		0.44473019409179687	-2.40652490234375	0		-1.1188626708984375	-0.035807918548583985	0		-0.8256468505859375	-2.638833251953125	0		1.4203043212890625	-0.7884468383789063	0		2.96628466796875	0.2010225372314453	0		4.50801904296875	0.3093744812011719	0		5.651787109375	0.057332664489746096	0		-0.1898992919921875	5.9043193359375	0		
-0.018195581436157227	0.007206978797912597	0		0.41253985595703124	-2.389775390625	0		-1.1112457275390626	-0.028921548843383788	0		-0.7892263793945312	-2.640580078125	0		1.424895751953125	-0.782509033203125	0		2.960884033203125	0.2071701354980469	0		4.51266015625	0.31729443359375	0		5.65125341796875	0.05735731506347656	0		-0.17618486022949217	5.914068359375	0		
0.05321902084350586	6.88414990901947E-4	0		0.4359535522460937	-2.395247314453125	0		-1.1157913818359375	-0.03277394104003906	0		-0.8266682739257812	-2.63871435546875	0		1.4193028564453125	-0.7883521728515624	0		2.955143310546875	0.1943207550048828	0		4.50633544921875	0.3234543762207031	0		5.65079443359375	0.05738172149658203	0		-0.19082855224609374	5.90443115234375	0		
-0.017245101928710937	-0.0017298179864883422	0		0.43350576782226563	-2.397154052734375	0		-1.1161849365234375	-0.03271768188476563	0		-0.7582653198242187	-2.64816552734375	0		1.4388572998046876	-0.7907443237304688	0		2.984006103515625	0.2057213592529297	0		4.51663525390625	0.30924740600585937	0		5.6504013671875	0.0574065055847168	0		-0.19119450378417968	5.90448291015625	0		
-5.681769847869873E-4	-0.0010528019666671753	0		0.432111572265625	-2.399084716796875	0		-1.120590576171875	-0.03557611465454102	0		-0.84131298828125	-2.63330224609375	0		1.4185616455078125	-0.7882647094726563	0		2.94956494140625	0.20150241088867188	0		4.5114716796875	0.31738507080078127	0		5.650060546875	0.05743212127685547	0		-0.19151112365722656	5.90453271484375	0		
-0.0258426513671875	5.404229760169983E-4	0		0.41671707153320314	-2.40271044921875	0		-1.1050499267578124	-0.04287354278564453	0		-0.7938545532226563	-2.644299560546875	0		1.418256591796875	-0.7882227783203125	0		2.971280029296875	0.20205776977539064	0		4.50599658203125	0.30952752685546875	0		5.6497587890625	0.05745939636230469	0		-0.19081507873535156	5.90355859375	0		
-0.014077398300170898	0.0023228740692138672	0		0.42158688354492185	-2.39577734375	0		-1.0971744384765625	-0.036001922607421875	0		-0.8151759643554688	-2.64579248046875	0		1.4261956787109376	-0.778358642578125	0		2.9627880859375	0.19227239990234374	0		4.5037001953125	0.30860467529296876	0		5.6536572265625	0.0654001235961914	0		-0.16068841552734375	5.9209443359375	0		
-0.023310163497924804	0.0035634050369262697	0		0.43434457397460935	-2.395018798828125	0		-1.1132744140625	-0.028607807159423827	0		-0.769251708984375	-2.63775537109375	0		1.437672119140625	-0.7905768432617187	0		2.958860595703125	0.20739491271972657	0		4.51476953125	0.3233963928222656	0		5.6492265625	0.057523319244384766	0		-0.1761278533935547	5.912318359375	0		
-0.02355122184753418	0.0036057260036468507	0		0.43205813598632814	-2.3969326171875	0		-1.11760205078125	-0.0324760856628418	0		-0.805464599609375	-2.63592529296875	0		1.434365478515625	-0.793469482421875	0		2.944382568359375	0.196743408203125	0		4.50040087890625	0.3177423095703125	0		5.64320556640625	0.067689453125	0		-0.19253480529785155	5.904712890625	0		
